<svg width="174" height="40" viewBox="0 0 174 40" fill="none" xmlns="http://www.w3.org/2000/svg">
<g clip-path="url(#clip0_1_38)">
<path d="M143.563 8.85202V17.922C143.563 19.522 144.163 20.648 145.657 20.648C148.216 20.648 149.18 17.124 149.18 13.236V8.85202H154.166L154.146 24.636H150.756L149.646 18.491C149.014 22.247 147.12 24.673 143.896 24.673C140.206 24.673 138.578 22.114 138.578 17.926V8.85202H143.563Z" fill="white"/>
<path d="M63.199 8.82203C63.3459 8.54441 63.4254 8.23609 63.431 7.92203C63.431 7.15703 62.966 6.72203 62.102 6.69203L63.602 4.33203C65.397 4.39803 66.527 5.39603 66.527 6.79203C66.527 7.82203 65.962 8.62003 64.599 9.41703C65.3382 9.79766 65.9586 10.3741 66.3924 11.0834C66.8263 11.7927 67.0569 12.6076 67.059 13.439C67.059 16.198 64.433 18.591 59.747 18.591C58.5618 18.614 57.3815 18.4341 56.257 18.059C56.035 18.1443 55.8404 18.2884 55.694 18.4758C55.5476 18.6633 55.455 18.887 55.426 19.123C55.426 19.987 56.357 20.252 57.52 20.252H61.209C66.062 20.252 68.488 22.014 68.488 24.706C68.488 28.097 65.231 29.858 59.448 29.858C54.628 29.858 50.74 28.794 50.74 26.202C50.74 24.407 52.966 23.377 55.792 23.344C53 22.944 51.571 22.114 51.571 20.252C51.571 18.591 53.532 17.726 55.027 17.494C54.2608 17.1291 53.6138 16.5544 53.1609 15.8367C52.708 15.119 52.4677 14.2877 52.468 13.439C52.468 10.414 55.293 8.25403 59.747 8.25403C60.9209 8.25395 62.087 8.44581 63.199 8.82203ZM58.645 23.712C56.618 23.712 55.388 24.244 55.388 25.441C55.388 26.703 56.983 27.368 59.642 27.368C62.368 27.368 63.93 26.568 63.93 25.274C63.93 24.374 63.066 23.712 61.271 23.712H58.645ZM59.745 10.783C59.0398 10.783 58.3635 11.0632 57.8648 11.5618C57.3661 12.0605 57.086 12.7368 57.086 13.442C57.086 14.1472 57.3661 14.8236 57.8648 15.3222C58.3635 15.8209 59.0398 16.101 59.745 16.101C60.0991 16.1199 60.4533 16.0641 60.7845 15.9371C61.1156 15.8102 61.4164 15.615 61.6671 15.3642C61.9179 15.1134 62.1131 14.8127 62.2401 14.4815C62.367 14.1503 62.4229 13.7962 62.404 13.442C62.429 13.0862 62.3772 12.7291 62.2522 12.395C62.1272 12.0608 61.9319 11.7574 61.6795 11.5053C61.4271 11.2532 61.1235 11.0583 60.7892 10.9336C60.455 10.809 60.0978 10.7577 59.742 10.783H59.745Z" fill="white"/>
<path d="M97.731 24.743C95.072 24.743 93.643 23.014 92.812 21.053V29.861H87.826V8.92202H90.718L91.781 13.841C92.413 11.381 93.809 8.58902 97.598 8.58902C101.786 8.58902 104.079 12.079 104.079 16.666C104.079 21.253 101.852 24.743 97.731 24.743ZM96.003 11.913C94.241 11.913 92.812 13.713 92.812 16.666C92.812 19.619 94.241 21.419 96.003 21.419C98.03 21.419 99.094 19.458 99.094 16.666C99.094 13.874 98.03 11.913 96.003 11.913Z" fill="white"/>
<path d="M74.233 8.85202V17.922C74.233 19.522 74.833 20.648 76.326 20.648C78.886 20.648 79.85 17.124 79.85 13.236V8.85202H84.835L84.816 24.636H81.426L80.315 18.491C79.683 22.247 77.789 24.673 74.565 24.673C70.876 24.673 69.247 22.114 69.247 17.926V8.85202H74.233Z" fill="white"/>
<path d="M111.945 24.669C110.562 24.7155 109.188 24.44 107.93 23.8644C106.672 23.2888 105.566 22.4287 104.697 21.352L106.907 19.077C107.466 19.8633 108.194 20.5142 109.038 20.9815C109.882 21.4488 110.82 21.7206 111.783 21.777C113.083 21.777 113.505 21.159 113.505 20.477C113.505 19.698 112.823 19.21 111.035 18.625C106.777 17.225 105.51 15.797 105.51 13.225C105.51 10.17 108.11 8.87002 111.653 8.87002C114.115 8.85377 116.489 9.78466 118.283 11.47L116.56 13.811C115.271 12.5873 113.589 11.8615 111.815 11.763C110.84 11.763 110.288 12.153 110.288 12.901C110.288 13.973 111.198 14.201 113.44 15.078C116.528 16.278 118.283 17.386 118.283 19.921C118.283 22.914 115.845 24.669 111.945 24.669Z" fill="white"/>
<path d="M130.934 24.669V15.596C130.934 13.996 130.334 12.87 128.84 12.87C126.281 12.87 125.317 16.393 125.317 20.282V24.669H120.331V2.53302H125.317V14.499C125.948 10.909 127.942 8.84802 130.601 8.84802C134.291 8.84802 135.919 11.408 135.919 15.596V24.669H130.934Z" fill="white"/>
<path d="M167.062 24.743C164.403 24.743 162.973 23.014 162.142 21.053V29.861H157.157V8.92202H160.049L161.112 13.841C161.744 11.381 163.14 8.58902 166.929 8.58902C171.116 8.58902 173.41 12.079 173.41 16.666C173.41 21.253 171.183 24.743 167.062 24.743ZM165.333 11.913C163.572 11.913 162.142 13.713 162.142 16.666C162.142 19.619 163.572 21.419 165.333 21.419C167.361 21.419 168.424 19.458 168.424 16.666C168.424 13.874 167.361 11.913 165.333 11.913Z" fill="white"/>
<path d="M32.839 39.152C32.5991 39.1519 32.3615 39.1043 32.14 39.0122C31.9184 38.92 31.7173 38.7851 31.548 38.615L25.889 32.959C25.4518 32.5176 24.8583 32.2661 24.237 32.259C22.266 32.235 21.353 32.21 19.83 32.109C19.4966 32.0728 19.1902 31.9091 18.9747 31.6522C18.7591 31.3953 18.6512 31.0651 18.6734 30.7305C18.6956 30.396 18.8462 30.0829 19.0938 29.8568C19.3414 29.6306 19.6668 29.5089 20.002 29.517C21.465 29.617 22.351 29.639 24.268 29.662C25.567 29.6755 26.8086 30.1992 27.725 31.12L32.07 35.465V32.039C32.0714 31.3587 32.3296 30.7039 32.7929 30.2057C33.2562 29.7076 33.8905 29.4026 34.569 29.352C35.42 29.29 36.28 29.219 37.126 29.14C37.9104 29.0364 38.6371 28.6719 39.189 28.105C39.7479 27.5764 40.1042 26.8688 40.196 26.105C40.584 21.0848 40.584 16.0422 40.196 11.022C40.0899 10.3467 39.7965 9.71481 39.3491 9.19807C38.9016 8.68133 38.3181 8.30054 37.665 8.099C37.3481 7.9892 37.0859 7.7612 36.9332 7.46263C36.7805 7.16405 36.7491 6.81802 36.8455 6.49682C36.942 6.17563 37.1588 5.90412 37.4507 5.73905C37.7426 5.57397 38.087 5.5281 38.412 5.611C39.5666 5.96233 40.5944 6.64126 41.3707 7.56538C42.1469 8.4895 42.6382 9.61907 42.785 10.817C43.183 15.9733 43.183 21.1527 42.785 26.309C42.6198 27.6854 41.9981 28.9667 41.0193 29.9482C40.0404 30.9298 38.7609 31.555 37.385 31.724H37.376C36.511 31.804 35.631 31.877 34.761 31.94C34.737 31.9434 34.715 31.9554 34.6992 31.9738C34.6833 31.9922 34.6748 32.0157 34.675 32.04V37.322C34.6749 37.5628 34.6272 37.8012 34.5349 38.0235C34.4425 38.2459 34.3071 38.4479 34.1366 38.6178C33.966 38.7878 33.7636 38.9225 33.541 39.0142C33.3183 39.1058 33.0798 39.1527 32.839 39.152Z" fill="white"/>
<path fill-rule="evenodd" clip-rule="evenodd" d="M32.6107 2.32501C33.5896 3.30618 34.2114 4.58702 34.377 5.96301C34.7752 11.1173 34.7755 16.2947 34.378 21.449C34.2124 22.825 33.5906 24.1058 32.6117 25.087C31.6329 26.0682 30.3536 26.6931 28.978 26.862H28.967C25.587 27.178 22.178 27.357 18.841 27.397C18.2196 27.4037 17.626 27.6552 17.189 28.097L11.527 33.757C11.3579 33.9266 11.157 34.0611 10.9358 34.1529C10.7146 34.2447 10.4775 34.292 10.238 34.292C9.99779 34.2912 9.76005 34.2436 9.538 34.152C9.20409 34.0148 8.91848 33.7815 8.71746 33.4817C8.51644 33.1818 8.40907 32.829 8.40899 32.468V27.184C8.40923 27.1597 8.40064 27.1362 8.38482 27.1178C8.36899 27.0994 8.34702 27.0874 8.323 27.084C7.453 27.023 6.57299 26.951 5.70799 26.869H5.697C4.32185 26.7002 3.04286 26.0758 2.0641 25.0952C1.08534 24.1146 0.463213 22.8345 0.296995 21.459C-0.102009 16.3027 -0.102009 11.1233 0.296995 5.96701C0.461753 4.59029 1.08323 3.30854 2.06212 2.32657C3.04101 1.3446 4.32081 0.719096 5.697 0.550012H5.70799C13.4436 -0.177478 21.2304 -0.177478 28.966 0.550012H28.977C30.3526 0.718912 31.6319 1.34384 32.6107 2.32501ZM15.1618 22.2365C15.3182 22.3127 15.49 22.3522 15.664 22.352C15.9188 22.352 16.1663 22.267 16.3673 22.1105C16.5684 21.9541 16.7115 21.735 16.774 21.488L20.135 8.03799C20.2086 7.7436 20.1622 7.43204 20.0061 7.17183C19.85 6.91162 19.5969 6.7241 19.3025 6.6505C19.0081 6.5769 18.6965 6.62326 18.4363 6.77939C18.1761 6.93551 17.9886 7.1886 17.915 7.48299L14.553 20.93C14.5107 21.0988 14.5075 21.275 14.5436 21.4452C14.5797 21.6155 14.6541 21.7752 14.7612 21.9123C14.8684 22.0494 15.0054 22.1603 15.1618 22.2365ZM12.589 18.994C12.3587 18.9941 12.1338 18.9244 11.944 18.794L7.03 15.433C6.87655 15.3278 6.75103 15.1869 6.66431 15.0223C6.57758 14.8577 6.53226 14.6745 6.53226 14.4885C6.53226 14.3025 6.57758 14.1193 6.66431 13.9547C6.75103 13.7901 6.87655 13.6492 7.03 13.544L11.944 10.182C12.1945 10.0107 12.5028 9.94587 12.8011 10.0018C13.0993 10.0578 13.3632 10.23 13.5345 10.4805C13.7058 10.731 13.7706 11.0393 13.7146 11.3376C13.6587 11.6358 13.4865 11.8997 13.236 12.071L9.703 14.488L13.236 16.905C13.4374 17.0433 13.5894 17.2424 13.6696 17.4732C13.7498 17.704 13.754 17.9544 13.6818 18.1878C13.6095 18.4212 13.4644 18.6253 13.2678 18.7704C13.0712 18.9154 12.8333 18.9938 12.589 18.994ZM22.089 18.994C21.8447 18.9938 21.6068 18.9154 21.4102 18.7704C21.2136 18.6253 21.0685 18.4212 20.9962 18.1878C20.9239 17.9544 20.9282 17.704 21.0084 17.4732C21.0886 17.2424 21.2405 17.0433 21.442 16.905L24.975 14.488L21.442 12.071C21.1915 11.8997 21.0193 11.6358 20.9633 11.3376C20.9074 11.0393 20.9722 10.731 21.1435 10.4805C21.3148 10.23 21.5786 10.0578 21.8769 10.0018C22.1752 9.94587 22.4835 10.0107 22.734 10.182L27.648 13.544C27.8014 13.6492 27.927 13.7901 28.0137 13.9547C28.1004 14.1193 28.1457 14.3025 28.1457 14.4885C28.1457 14.6745 28.1004 14.8577 28.0137 15.0223C27.927 15.1869 27.8014 15.3278 27.648 15.433L22.734 18.794C22.5441 18.9243 22.3193 18.994 22.089 18.994Z" fill="white"/>
<path d="M39.189 28.105C39.7479 27.5764 40.1042 26.8688 40.196 26.105C40.584 21.0848 40.584 16.0422 40.196 11.022C40.0899 10.3468 39.7965 9.71482 39.3491 9.19808C38.9016 8.68134 38.3181 8.30055 37.665 8.09901C37.4172 8.0252 37.1973 7.8785 37.034 7.67801C37.4632 13.487 37.4558 19.3201 37.012 25.128C36.9008 26.0271 36.48 26.8594 35.822 27.482C35.1734 28.1497 34.3188 28.5794 33.396 28.702C29.496 29.066 25.563 29.273 21.71 29.32C21.212 29.3286 20.717 29.4001 20.237 29.533C21.568 29.618 22.459 29.641 24.275 29.663C25.574 29.6766 26.8156 30.2002 27.732 31.121L32.077 35.466V32.039C32.0783 31.3598 32.3355 30.706 32.7973 30.208C33.2592 29.71 33.8918 29.4043 34.569 29.352C35.42 29.29 36.28 29.219 37.126 29.14C37.9104 29.0365 38.6371 28.6719 39.189 28.105Z" fill="white"/>
</g>
<defs>
<clipPath id="clip0_1_38">
<rect width="173.41" height="39.152" fill="white"/>
</clipPath>
</defs>
</svg>
