<svg width="125" height="28" viewBox="0 0 125 28" fill="none" xmlns="http://www.w3.org/2000/svg">
<g clip-path="url(#clip0_7051_3495)">
<mask id="mask0_7051_3495" style="mask-type:luminance" maskUnits="userSpaceOnUse" x="0" y="0" width="125" height="28">
<path d="M124.614 0.584961H0.982422V27.585H124.614V0.584961Z" fill="white"/>
</mask>
<g mask="url(#mask0_7051_3495)">
<path fill-rule="evenodd" clip-rule="evenodd" d="M109.693 22.3498C113.378 22.3498 116.47 19.6977 117.34 16.1127C117.345 16.0868 117.35 16.0598 117.35 16.0324C117.35 15.8144 117.182 15.6379 116.975 15.6379H113.792C113.641 15.6379 113.511 15.7317 113.452 15.8682C112.798 17.3628 111.362 18.4011 109.693 18.4011C107.41 18.4011 105.558 16.457 105.558 14.0582C105.558 11.6597 107.41 9.71501 109.693 9.71501C111.362 9.71501 112.797 10.7539 113.451 12.2487C113.51 12.3842 113.641 12.4788 113.792 12.4788H116.975C117.182 12.4788 117.35 12.302 117.35 12.0838C117.35 12.0564 117.345 12.0311 117.34 12.0049C116.47 8.41979 113.378 5.76693 109.693 5.76693C105.335 5.76693 101.799 9.48018 101.799 14.0582C101.799 18.6374 105.335 22.3498 109.693 22.3498ZM123.257 6.1616V21.5597C123.257 21.7775 123.088 21.9543 122.882 21.9543H119.875C119.667 21.9543 119.499 21.7775 119.499 21.5597V6.1616H123.257ZM121.378 0.63421C120.132 0.63421 119.123 1.69527 119.123 3.00324C119.123 4.31161 120.132 5.37227 121.378 5.37227C122.624 5.37227 123.633 4.31161 123.633 3.00324C123.633 1.69527 122.624 0.63421 121.378 0.63421ZM86.215 12.4788C86.8743 9.97548 89.0574 8.13597 91.6504 8.13597C94.2435 8.13597 96.4249 9.97548 97.0839 12.4788H86.215ZM91.6504 5.76693C87.2902 5.76693 83.7557 9.47883 83.7557 14.0582C83.7557 18.6369 87.2902 22.3498 91.6504 22.3498C94.7324 22.3498 97.3993 20.4936 98.6993 17.7887C98.7254 17.7349 98.74 17.6755 98.74 17.6113C98.74 17.3927 98.5716 17.2167 98.364 17.2167H96.6195C96.4952 17.2167 96.3849 17.2806 96.3171 17.3792C95.3021 18.9484 93.5913 19.9805 91.6504 19.9805C88.7907 19.9805 86.4305 17.7449 86.0627 14.8475H99.1577C99.3592 14.8475 99.5226 14.6811 99.5329 14.4727C99.5398 14.3354 99.5434 14.1971 99.5434 14.0582C99.5434 9.47883 96.0098 5.76693 91.6504 5.76693ZM81.1244 1.029H79.6213C79.4129 1.029 79.2452 1.20587 79.2452 1.42366V21.5597C79.2452 21.7775 79.4129 21.9543 79.6213 21.9543H81.1244C81.3321 21.9543 81.501 21.7775 81.501 21.5597V1.42366C81.501 1.20587 81.3321 1.029 81.1244 1.029ZM76.6137 17.2167H74.8686C74.7468 17.2167 74.6393 17.2779 74.5715 17.3717C73.5581 18.9452 71.8438 19.9805 69.8999 19.9805C66.7847 19.9805 64.261 17.3289 64.261 14.0582C64.261 10.7872 66.7847 8.13597 69.8999 8.13597C71.8438 8.13597 73.5581 9.17139 74.5715 10.7444C74.6401 10.8387 74.7478 10.8997 74.8686 10.8997H76.6137C76.8216 10.8997 76.99 10.7225 76.99 10.5049C76.99 10.4406 76.9745 10.3809 76.9483 10.3275C75.6492 7.62281 72.9806 5.76693 69.8999 5.76693C65.54 5.76693 62.006 9.47883 62.006 14.0582C62.006 18.6369 65.54 22.3498 69.8999 22.3498C72.9806 22.3498 75.6492 20.4936 76.9483 17.7887C76.9745 17.7349 76.99 17.6755 76.99 17.6113C76.99 17.3927 76.8216 17.2167 76.6137 17.2167ZM61.6352 5.77646C59.3604 5.88918 57.5437 7.03063 56.367 8.77419V6.55571C56.367 6.33886 56.1984 6.1616 55.9909 6.1616H54.4875C54.2799 6.1616 54.1117 6.33886 54.1117 6.55571V21.5597C54.1117 21.7775 54.2799 21.9543 54.4875 21.9543H55.9909C56.1984 21.9543 56.367 21.7775 56.367 21.5597V14.0582C56.367 10.9202 58.6911 8.35283 61.6291 8.14966C61.8367 8.14966 62.006 7.97252 62.006 7.75406V6.17126C62.006 5.95481 61.8401 5.78063 61.6352 5.77646ZM51.856 21.5597V6.1616H49.6005V21.5597C49.6005 21.7775 49.7693 21.9543 49.9766 21.9543H51.4801C51.6877 21.9543 51.856 21.7775 51.856 21.5597ZM52.2317 3.00324C52.2317 3.87549 51.5591 4.58255 50.7284 4.58255C49.8982 4.58255 49.225 3.87549 49.225 3.00324C49.225 2.131 49.8982 1.42366 50.7284 1.42366C51.5591 1.42366 52.2317 2.131 52.2317 3.00324ZM46.9691 17.2167H45.2245C45.1023 17.2167 44.9957 17.2779 44.9263 17.3717C43.9136 18.9452 42.1999 19.9805 40.2551 19.9805C37.1405 19.9805 34.6165 17.3289 34.6165 14.0582C34.6165 10.7872 37.1405 8.13597 40.2551 8.13597C42.1999 8.13597 43.9136 9.17139 44.9272 10.7444C44.9957 10.8387 45.1034 10.8997 45.2245 10.8997H46.9691C47.1771 10.8997 47.346 10.7225 47.346 10.5049C47.346 10.4406 47.3298 10.3809 47.3048 10.3275C46.0048 7.62281 43.3362 5.76693 40.2551 5.76693C35.8953 5.76693 32.3604 9.47883 32.3604 14.0582C32.3604 18.6369 35.8953 22.3498 40.2551 22.3498C43.3362 22.3498 46.0048 20.4936 47.3048 17.7887C47.3298 17.7349 47.346 17.6755 47.346 17.6113C47.346 17.3927 47.1771 17.2167 46.9691 17.2167ZM13.4253 0.584961C7.43754 0.584961 2.41271 4.894 0.99852 10.7197C0.988938 10.7621 0.982422 10.8053 0.982422 10.8504C0.982422 11.2047 1.25596 11.4919 1.59337 11.4919H6.76335C7.00953 11.4919 7.22022 11.3375 7.31743 11.1172C8.37964 8.68844 10.7137 7.0003 13.4253 7.0003C17.1351 7.0003 20.144 10.1608 20.144 14.0582C20.144 17.9556 17.1351 21.116 13.4253 21.116C10.7137 21.116 8.38054 19.4277 7.31834 16.9983L7.31743 16.9997C7.22022 16.7788 7.00953 16.6248 6.76335 16.6248H1.59337C1.25596 16.6248 0.982422 16.9111 0.982422 17.2664C0.982422 17.3103 0.988938 17.3522 0.997625 17.3942C2.41143 23.2202 7.43639 27.5311 13.4253 27.5311C20.509 27.5311 26.2524 21.4982 26.2524 14.0582C26.2524 6.61731 20.509 0.584961 13.4253 0.584961ZM10.3709 14.0582C10.3709 12.287 11.7388 10.8504 13.4253 10.8504C15.1118 10.8504 16.479 12.287 16.479 14.0582C16.479 15.8294 15.1118 17.2664 13.4253 17.2664C11.7388 17.2664 10.3709 15.8294 10.3709 14.0582Z" fill="white"/>
</g>
</g>
<defs>
<clipPath id="clip0_7051_3495">
<rect width="123.632" height="27" fill="white" transform="translate(0.982422 0.584961)"/>
</clipPath>
</defs>
</svg>
