<svg width="1038" height="310" viewBox="0 0 1038 310" fill="none" xmlns="http://www.w3.org/2000/svg">
<path d="M492.58 79.9983H539.054V229.988H504.616V129.124L460.559 229.988L414.192 128.998V229.988H382.057V79.9983H427.991L461.107 157.632L492.58 79.9983Z" fill="white"/>
<path d="M556.18 79.9983V229.988H642.723V204.56H589.73V166.401H640.533V140.733H589.73V106.321H642.723V79.9983H556.18Z" fill="white"/>
<path d="M771.801 155.02C771.801 210.852 830.071 255.53 891.467 225.647V193.513C844.224 226.608 803.1 193.437 803.774 156.302C804.234 131.622 820.82 108.151 852.9 106.321C868.677 105.426 879.364 109.347 891.467 120.936V87.5193C847.103 61.2295 771.801 90.1643 771.801 155.02Z" fill="white"/>
<path d="M905.627 229.988H937.527V81.4412H905.627V229.988Z" fill="white"/>
<path d="M977.556 149.556L1025.76 81.7683H988.503L940.746 149.429L996.191 229.988H1032.77L977.556 149.556Z" fill="white"/>
<path d="M657.637 79.9968V229.987H691.304V149.405L746.956 229.987H782.844L738.786 167.007C759.205 159.285 765.83 142.165 765.83 125.053C765.83 107.953 751.476 79.9968 716.704 79.9968H657.637ZM691.304 104.956H706C730.846 104.956 732.172 121.199 732.172 127.264C732.172 138.852 722.34 148.72 709.649 148.72H691.304V104.956Z" fill="white"/>
<path d="M79.9949 80.0015C79.9949 38.5766 113.578 5 154.997 5C196.428 5 229.998 38.5766 229.998 80.0015H79.9949ZM79.9949 229.998C79.9949 188.58 113.578 154.997 154.997 154.997C113.578 154.997 79.9949 121.427 79.9949 80.0015C38.5767 80.0015 4.99988 113.578 4.99988 154.997C4.99988 196.428 38.5767 229.998 79.9949 229.998ZM79.9949 229.998C79.9949 271.43 113.578 305 154.997 305C196.428 305 229.998 271.43 229.998 229.998H79.9949ZM154.997 154.997C196.428 154.997 229.998 188.58 229.998 229.998C271.423 229.998 305.007 196.428 305.007 154.997C305.007 113.578 271.423 80.0015 229.998 80.0015C229.998 121.427 196.428 154.997 154.997 154.997Z" fill="white"/>
</svg>
