<svg width="523" height="192" viewBox="0 0 523 192" fill="none" xmlns="http://www.w3.org/2000/svg">
<g clip-path="url(#clip0_9377_774)">
<path d="M92.0215 86.7253C91.7937 92.8415 89.4543 98.6899 85.4013 103.276C80.8152 107.329 74.9668 109.668 68.8506 109.896H31.7772V63.5544H68.8506C75.4709 63.5544 80.9878 65.7612 85.4013 70.1747C89.4543 74.7607 91.7937 80.6092 92.0215 86.7253ZM125.123 86.7253C125.205 79.4256 123.777 72.1878 120.929 65.4661C118.081 58.7445 113.874 52.6842 108.572 47.6658C103.574 42.5656 97.5954 38.5288 90.9968 35.7984C84.3982 33.0679 77.3155 31.7001 70.1747 31.7772H0V188.677H31.7772V142.335H70.1747C77.3631 142.327 84.4745 140.855 91.0759 138.01C97.6772 135.164 103.63 131.005 108.572 125.785C113.754 120.709 117.838 114.623 120.571 107.905C123.304 101.186 124.628 93.9769 124.461 86.7253H125.123ZM242.963 188.677H356.832V156.9H274.079V139.025C288.643 135.053 303.208 128.433 317.772 119.165L331.013 110.558L314.462 84.0772L301.222 92.0215C292.826 97.2496 283.96 101.682 274.741 105.262V64.2165H356.832V31.7772H242.963V112.544C227.516 112.544 215.379 109.676 206.552 103.938C188.677 94.0076 166.83 70.8367 166.83 15.8886V0H135.715V15.8886C136.598 71.9401 155.135 110.558 191.325 131.743C206.038 140.215 222.677 144.774 239.653 144.984H242.963V188.677ZM491.885 110.558C491.801 117.309 490.684 124.006 488.575 130.419C486.776 136.229 483.852 141.627 479.968 146.308C476.301 150.511 471.79 153.894 466.728 156.238C461.16 158.936 455.039 160.296 448.853 160.21C442.444 160.402 436.084 159.039 430.316 156.238C425.255 153.894 420.743 150.511 417.076 146.308C412.956 141.684 409.804 136.281 407.808 130.419C403.742 117.491 403.742 103.626 407.808 90.6975C409.804 84.8352 412.956 79.4326 417.076 74.8089C420.676 70.3662 425.192 66.7531 430.316 64.2165C436.084 61.4157 442.444 60.0529 448.853 60.2443C455.039 60.1582 461.16 61.5184 466.728 64.2165C471.852 66.7531 476.369 70.3662 479.968 74.8089C483.852 79.489 486.776 84.8879 488.575 90.6975C490.684 97.1102 491.801 103.808 491.885 110.558ZM523 110.558C523.123 99.3041 521.332 88.1109 517.704 77.457C514.438 68.2469 509.5 59.7185 503.139 52.3C496.517 45.0886 488.377 39.436 479.306 35.7494C469.667 31.2529 459.159 28.9227 448.522 28.9227C437.885 28.9227 427.378 31.2529 417.738 35.7494C408.668 39.436 400.528 45.0886 393.905 52.3C387.4 60.1137 382.456 69.1034 379.341 78.781C372.554 99.8748 372.554 122.566 379.341 143.66C382.29 153.408 387.252 162.429 393.905 170.141C400.528 177.352 408.668 183.005 417.738 186.691C427.528 190.683 438.017 192.681 448.589 192.567C459.161 192.454 469.604 190.231 479.306 186.029C488.377 182.343 496.517 176.69 503.139 169.479C509.713 161.962 514.67 153.173 517.704 143.66C521.235 133.067 523 122.033 523 110.558Z" fill="white"/>
</g>
<defs>
<clipPath id="clip0_9377_774">
<rect width="523" height="191.987" fill="white"/>
</clipPath>
</defs>
</svg>
