<svg width="1341" height="372" viewBox="0 0 1341 372" fill="none" xmlns="http://www.w3.org/2000/svg">
<g clip-path="url(#clip0_2_97)">
<path d="M1340.98 325.903H977.248V232.803H1340.98V325.903Z" fill="white"/>
<path d="M1293.74 325.903H977.248V93.0512H1293.74V325.903Z" fill="white"/>
<path d="M1162.98 325.903H977.248V0H1162.98V325.903Z" fill="white"/>
<path d="M1199.52 325.903H977.248V36.3657H1199.52V325.903Z" fill="white"/>
<path d="M977.197 36.4206V325.873H1162.96V36.4206H977.197Z" fill="white"/>
<path d="M791 325.903H977.248V372.458H791V325.903Z" fill="white"/>
<path d="M977.197 92.9999V325.873H1199.63V92.9999H977.197Z" fill="white"/>
<path d="M977.197 92.9999V325.873H1162.96V92.9999H977.197Z" fill="white"/>
<path d="M1093.4 325.903H977.248V186.141H1093.4V325.903Z" fill="white"/>
<path d="M977.197 232.87V325.873H1293.85V232.87H977.197Z" fill="white"/>
<path d="M977.197 232.87V325.873H1199.63V232.87H977.197Z" fill="white"/>
<path d="M977.197 232.87V325.873H1162.96V232.87H977.197Z" fill="white"/>
<path d="M977.197 232.87V325.873H1093.51V232.87H977.197Z" fill="white"/>
<path d="M676.76 114.248C645.07 119.882 628.169 143.826 628.169 185.375C628.169 227.628 650.704 255.797 683.803 255.797C700 255.797 714.084 250.164 743.662 235.375C743.662 269.882 743.662 269.882 743.662 269.882C707.746 286.783 686.62 291.009 658.451 291.009C626.761 291.009 604.225 283.262 586.62 264.248C568.31 245.938 558.451 221.995 558.451 194.53C558.451 134.671 603.521 93.1214 669.014 93.1214C711.972 93.1214 742.253 113.544 742.253 142.417C742.253 161.431 728.169 174.812 707.746 174.812C697.183 174.812 688.732 171.29 676.76 164.952" fill="white"/>
<path d="M518.31 194.53C547.183 158.614 557.747 143.826 557.747 126.22C557.747 108.614 543.662 93.1214 523.944 93.1214C512.676 93.1214 502.113 99.4594 497.183 105.093C497.183 179.037 497.183 179.037 497.183 179.037C450 242.417 450 242.417 450 242.417C450 98.7552 450 98.7552 450 98.7552C404.93 98.7552 404.93 98.7552 404.93 98.7552C330.282 221.995 330.282 221.995 330.282 221.995C330.282 98.7552 330.282 98.7552 330.282 98.7552C304.93 98.7552 304.93 98.7552 304.93 98.7552C236.62 114.248 236.62 114.248 236.62 114.248C236.62 131.854 236.62 131.854 236.62 131.854C273.944 135.375 273.944 135.375 273.944 135.375C273.944 288.192 273.944 288.192 273.944 288.192C321.127 288.192 321.127 288.192 321.127 288.192C392.958 169.882 392.958 169.882 392.958 169.882C392.958 288.192 392.958 288.192 392.958 288.192C445.775 288.192 445.775 288.192 445.775 288.192" fill="white"/>
<path d="M93.662 264.248C99.2958 264.248 100.704 264.248 104.225 264.248C142.254 264.248 163.38 241.009 163.38 194.53C163.38 155.797 146.479 134.671 114.789 134.671C110.563 134.671 104.225 135.375 93.662 137.488V264.248ZM93.662 347.347C124.648 354.389 124.648 354.389 124.648 354.389C124.648 371.995 124.648 371.995 124.648 371.995C2.81689 371.995 2.81691 371.995 2.81691 371.995C2.81691 354.389 2.81691 354.389 2.81691 354.389C30.9859 347.347 30.9859 347.347 30.9859 347.347C30.9859 134.671 30.9859 134.671 30.9859 134.671C-3.8147e-06 134.671 0 134.671 0 134.671C0 117.065 0 117.065 0 117.065C73.9437 94.5299 73.9437 94.5299 73.9437 94.5299C93.662 94.5299 93.662 94.5299 93.662 94.5299C93.662 119.882 93.662 119.882 93.662 119.882C128.169 98.7552 140.141 95.2341 158.451 95.2341C199.296 95.2341 230.282 133.262 230.282 186.079C230.282 246.643 188.732 288.192 125.352 288.192C118.31 288.192 106.338 287.488 93.662 286.783" fill="white"/>
</g>
<defs>
<clipPath id="clip0_2_97">
<rect width="1341" height="372" fill="white" transform="translate(0 -0.00268555)"/>
</clipPath>
</defs>
</svg>
