<svg width="69" height="32" viewBox="0 0 69 32" fill="none" xmlns="http://www.w3.org/2000/svg">
<path d="M10.3047 17.4532H4.70235V30.8726H0V0.770752H10.5039C18.1039 0.770752 21.3248 2.62099 21.3248 9.13436C21.3248 13.8556 18.079 16.0018 14.8629 16.8437L22.1853 30.8726H16.8657L10.3047 17.4532ZM11.6431 16.3524C15.4428 16.3524 16.6229 13.3113 16.6229 9.11174C16.6229 4.91221 15.4428 1.87062 10.5039 1.87062H4.70235V16.3524H11.6431Z" fill="white"/>
<path d="M45.3215 17.6105V30.8706H40.6383V16.8468C40.6383 13.1329 40.0677 10.632 35.9697 10.632C31.8966 10.632 29.0705 14.5479 29.0705 17.463V30.8726H24.3884V0.770752H29.0684V14.2395C30.4374 11.3428 33.5104 9.02643 37.4766 9.02643C43.3617 9.02643 45.3215 12.4324 45.3215 17.6105Z" fill="white"/>
<path d="M58.0726 31.6081C52.213 31.6081 47.1532 27.6594 47.1532 20.3175C47.1532 12.9756 52.2135 9.02641 58.0721 9.02641C63.9307 9.02641 68.9921 12.9751 68.9921 20.3175C68.9921 27.6599 63.9318 31.6081 58.0726 31.6081ZM58.0726 9.93046C52.8282 9.93046 52.1393 13.2758 52.1393 20.3175C52.1393 27.3592 52.8282 30.704 58.0726 30.704C63.3171 30.704 64.0065 27.3587 64.0065 20.3175C64.0065 13.2763 63.3176 9.93046 58.0726 9.93046Z" fill="white"/>
</svg>
