<svg width="1781" height="387" viewBox="0 0 1781 387" fill="none" xmlns="http://www.w3.org/2000/svg">
<path d="M736.5 112.4V222.4C736.5 259.7 734.8 283.1 731.3 292.7C727.9 302.3 721.5 310.3 712.1 316.8C702.8 323.3 692.2 326.5 680.4 326.5C670.1 326.5 661.5 324.1 654.8 319.3C648.1 314.4 643.4 307.9 640.9 299.7C638.4 291.4 637.1 269 637.1 232.3V112.4H568V277.3C568 301.8 571.1 321.1 577.3 335C583.5 348.9 593.6 359.7 607.5 367.4C621.4 375.1 637.2 378.9 654.7 378.9C671.9 378.9 688.2 374.9 703.7 366.9C719.2 358.9 731.7 347.9 741.2 334V373H805.4V112.4H736.5ZM1652.4 112.4L1602.7 245.4C1600.1 252.8 1597.6 260.1 1595.3 267.5C1594.3 271.1 1591.9 278.5 1588.2 289.8L1573.9 245.4L1524.7 112.4H1452.2L1557.5 373H1619.7L1723.5 112.4H1652.4ZM365.5 302.1C353.2 288.3 347.1 268.6 347.1 242.7C347.1 216.8 353.3 197.1 365.5 183.3C377.8 169.6 393 162.7 411 162.7C429 162.7 444.2 169.6 456.4 183.3C468.6 197.1 474.7 216.7 474.7 242.2C474.7 268.4 468.6 288.3 456.4 302.1C444.2 315.8 429.1 322.7 411 322.7C392.9 322.7 377.8 315.8 365.5 302.1ZM341.2 123.4C320.5 134.7 304.5 151.1 293.1 172.5C281.8 194 276.1 216.1 276.1 239C276.1 268.9 281.7 294.3 293.1 315.2C304.4 336.1 320.9 351.9 342.6 362.7C364.3 373.5 387.1 378.9 411.1 378.9C449.8 378.9 481.9 366 507.4 340C532.9 314 545.6 281.4 545.6 242C545.6 202.9 533 170.5 507.7 144.9C482.5 119.3 450.1 106.5 410.6 106.5C385.1 106.5 362 112.1 341.2 123.4ZM1281.6 302.1C1269.3 288.3 1263.1 268.6 1263.1 242.7C1263.1 216.8 1269.3 197.1 1281.6 183.3C1293.9 169.6 1309.1 162.7 1327.1 162.7C1345.1 162.7 1360.2 169.6 1372.5 183.3C1384.7 197.1 1390.8 216.7 1390.8 242.2C1390.8 268.4 1384.7 288.3 1372.5 302.1C1360.3 315.8 1345.2 322.7 1327.1 322.7C1309.1 322.7 1293.9 315.8 1281.6 302.1ZM1257.4 123.4C1236.7 134.7 1220.6 151.1 1209.3 172.5C1198 194 1192.4 216.1 1192.4 239C1192.4 268.9 1198 294.3 1209.3 315.2C1220.6 336.1 1237.1 351.9 1258.9 362.7C1280.6 373.5 1303.4 378.9 1327.4 378.9C1366.1 378.9 1398.2 366 1423.7 340C1449.2 314 1461.9 281.4 1461.9 242C1461.9 202.9 1449.3 170.5 1424 144.9C1398.8 119.3 1366.4 106.5 1326.9 106.5C1301.3 106.5 1278.2 112.1 1257.4 123.4ZM260.3 13.2L177.2 155.6L92.4 13.2H7.10001L139.1 221.6V373H211.6V222.1L344.2 13.2H260.3ZM1013.9 7.09998C979.5 7.09998 950.7 13.1 927.6 25C897.3 40.5 874.2 62.9 858.5 92C842.8 121.1 834.9 154.4 834.9 191.9C834.9 226.4 841.9 258.4 856 287.8C870.1 317.2 891.2 339.7 919.2 355.5C947.2 371.3 980.1 379.2 1017.8 379.2C1047.5 379.2 1076.8 373.6 1105.7 362.4C1134.6 351.2 1156.7 338.2 1172 323.5V180.1H1015.1V240.7H1098.5V286.3C1087.5 294.8 1074.4 302.1 1059 308C1043.7 313.9 1028.4 316.9 1013.1 316.9C982.3 316.9 957.4 306.2 938.4 284.9C919.4 263.6 909.9 231.5 909.9 188.8C909.9 149.2 919.3 119.4 938 99.2C956.8 79.1 982 69 1013.8 69C1034.8 69 1052.3 74.1 1066.3 84.4C1080.3 94.6 1089.8 108.6 1094.9 126.2L1167.2 112.7C1160 79.7 1143.8 53.8 1118.6 35C1093.6 16.4 1058.6 7.09998 1013.9 7.09998Z" fill="white"/>
</svg>
